<?xml version="1.0" encoding="UTF-8"?>
<svg version="1.1" xmlns="http://www.w3.org/2000/svg" width="160" height="160">
<path d="M0 0 C52.8 0 105.6 0 160 0 C160 52.8 160 105.6 160 160 C107.2 160 54.4 160 0 160 C0 107.2 0 54.4 0 0 Z " fill="#FDFDFD" transform="translate(0,0)"/>
<path d="M0 0 C5.33162227 4.01642133 7.87897839 9.00927791 9.05859375 15.55078125 C9.62332921 22.76124287 9.77533297 30.12648365 6.05859375 36.55078125 C2.51976811 40.54919463 -1.63517532 44.32626642 -6.94140625 45.55078125 C-9.27348645 45.6272429 -11.60986503 45.64221424 -13.94140625 45.55078125 C-12.06438298 50.44640818 -12.06438298 50.44640818 -8.94140625 54.55078125 C-14.55140625 54.55078125 -20.16140625 54.55078125 -25.94140625 54.55078125 C-25.61140625 52.57078125 -25.28140625 50.59078125 -24.94140625 48.55078125 C-25.27140625 46.90078125 -25.60140625 45.25078125 -25.94140625 43.55078125 C-32.21140625 43.88078125 -38.48140625 44.21078125 -44.94140625 44.55078125 C-45.62637677 49.54053663 -45.62637677 49.54053663 -45.94140625 54.55078125 C-51.22140625 54.55078125 -56.50140625 54.55078125 -61.94140625 54.55078125 C-61.07128906 52.88402344 -60.20117188 51.21726563 -59.3046875 49.5 C-55.7111513 42.31398358 -52.89545658 34.89596778 -50.12890625 27.36328125 C-49.39716904 25.38477363 -48.66351198 23.40701704 -47.92683411 21.43034363 C-47.27038548 19.66704112 -46.61976343 17.90157268 -45.96948242 16.13598633 C-44.94140625 13.55078125 -44.94140625 13.55078125 -43.94140625 12.55078125 C-41.07873058 12.47752957 -38.24068725 12.4583992 -35.37890625 12.48828125 C-34.57259766 12.49279297 -33.76628906 12.49730469 -32.93554688 12.50195312 C-30.93746869 12.51377607 -28.93942842 12.53171211 -26.94140625 12.55078125 C-26.44640625 15.02578125 -26.44640625 15.02578125 -25.94140625 17.55078125 C-18.02140625 17.55078125 -10.10140625 17.55078125 -1.94140625 17.55078125 C-3.91184034 9.09811418 -3.91184034 9.09811418 -7.28125 6.515625 C-16.33707322 3.23106063 -25.36612008 6.14499383 -33.94140625 9.55078125 C-33.94140625 6.58078125 -33.94140625 3.61078125 -33.94140625 0.55078125 C-23.12339473 -4.32792983 -10.72059442 -6.24927918 0 0 Z " fill="#050505" transform="translate(105.94140625,38.44921875)"/>
<path d="M0 0 C6.6 0 13.2 0 20 0 C18.81544015 7.10735911 18.81544015 7.10735911 14.8984375 10.09765625 C11.31441499 11.80117312 7.89181801 11.2948347 4 11 C2.68 7.37 1.36 3.74 0 0 Z " fill="#F9F9F9" transform="translate(84,65)"/>
<path d="M0 0 C1.65 0 3.3 0 5 0 C4.67 1.65 4.34 3.3 4 5 C5.65 5 7.3 5 9 5 C8.67 3.35 8.34 1.7 8 0 C10.97 0 13.94 0 17 0 C20.875 6.75 20.875 6.75 22 9 C21.34 9.66 20.68 10.32 20 11 C19.01 9.02 18.02 7.04 17 5 C17 7.31 17 9.62 17 12 C13.7 12 10.4 12 7 12 C7.66 10.02 8.32 8.04 9 6 C7.02 6 5.04 6 3 6 C3 7.65 3 9.3 3 11 C2.67 11 2.34 11 2 11 C2 7.7 2 4.4 2 1 C1.34 0.67 0.68 0.34 0 0 Z " fill="#F3F3F3" transform="translate(83,100)"/>
<path d="M0 0 C0.66 0 1.32 0 2 0 C3.00419637 2.4566947 4.00350501 4.91518353 5 7.375 C5.28617188 8.07367188 5.57234375 8.77234375 5.8671875 9.4921875 C8 14.7734375 8 14.7734375 8 17 C3.71 17 -0.58 17 -5 17 C-4.20514017 13.02570087 -3.23700354 9.50217167 -1.9375 5.6875 C-1.57527344 4.61886719 -1.21304688 3.55023438 -0.83984375 2.44921875 C-0.56269531 1.64097656 -0.28554687 0.83273438 0 0 Z " fill="#E3E3E3" transform="translate(69,58)"/>
<path d="M0 0 C3.3 0 6.6 0 10 0 C13.875 6.75 13.875 6.75 15 9 C14.34 9.66 13.68 10.32 13 11 C11.515 8.03 11.515 8.03 10 5 C10 7.31 10 9.62 10 12 C6.7 12 3.4 12 0 12 C0 8.04 0 4.08 0 0 Z " fill="#C5C5C5" transform="translate(45,100)"/>
<path d="M0 0 C7.23897912 -0.48259861 7.23897912 -0.48259861 10.5625 1.625 C12 4 12 4 12 7.125 C11 10 11 10 9.375 11.375 C6.2052173 12.20915334 3.26096908 12.12542189 0 12 C0 8.04 0 4.08 0 0 Z " fill="#ABABAB" transform="translate(124,100)"/>
<path d="M0 0 C2.875 -0.125 2.875 -0.125 6 0 C8 2 8 2 8.23046875 3.91015625 C8.11111111 9.88888889 8.11111111 9.88888889 7 11 C4.66702567 11.04092937 2.33294775 11.04241723 0 11 C-0.33 9.02 -0.66 7.04 -1 5 C1.64 5 4.28 5 7 5 C5.33045181 1.77595022 5.33045181 1.77595022 2.375 1.3125 C1.59125 1.209375 0.8075 1.10625 0 1 C0 0.67 0 0.34 0 0 Z " fill="#181818" transform="translate(73,100)"/>
<path d="M0 0 C2.875 -0.125 2.875 -0.125 6 0 C8 2 8 2 8.1875 5.5 C8 9 8 9 7 11 C4.69 11 2.38 11 0 11 C-0.33 9.02 -0.66 7.04 -1 5 C1.64 5 4.28 5 7 5 C5.33045181 1.77595022 5.33045181 1.77595022 2.375 1.3125 C1.59125 1.209375 0.8075 1.10625 0 1 C0 0.67 0 0.34 0 0 Z " fill="#6A6A6A" transform="translate(114,100)"/>
<path d="M0 0 C2.52349243 3.12432397 4.27256146 6.38060496 6 10 C6.33 9.34 6.66 8.68 7 8 C7.66 8 8.32 8 9 8 C9.33 8.66 9.66 9.32 10 10 C10.66 10 11.32 10 12 10 C11.24849977 6.72226496 11.24849977 6.72226496 8 5 C8.33 3.68 8.66 2.36 9 1 C9 1.99 9 2.98 9 4 C9.804375 4.2475 10.60875 4.495 11.4375 4.75 C14 6 14 6 14.9375 8 C14.958125 8.66 14.97875 9.32 15 10 C13 12 13 12 10.3984375 12.1953125 C9.40070312 12.17210938 8.40296875 12.14890625 7.375 12.125 C5.87066406 12.09792969 5.87066406 12.09792969 4.3359375 12.0703125 C3.56507812 12.04710938 2.79421875 12.02390625 2 12 C1.67 9.36 1.34 6.72 1 4 C0.34 4 -0.32 4 -1 4 C-0.67 2.68 -0.34 1.36 0 0 Z " fill="#BBBBBB" transform="translate(29,100)"/>
<path d="M0 0 C1.65 0 3.3 0 5 0 C4.67 1.65 4.34 3.3 4 5 C5.65 5 7.3 5 9 5 C8.67 3.35 8.34 1.7 8 0 C9.32 0.33 10.64 0.66 12 1 C11.67 4.3 11.34 7.6 11 11 C10.34 11 9.68 11 9 11 C9 9.35 9 7.7 9 6 C7.02 6 5.04 6 3 6 C3 7.65 3 9.3 3 11 C2.67 11 2.34 11 2 11 C2 7.7 2 4.4 2 1 C1.34 0.67 0.68 0.34 0 0 Z " fill="#535353" transform="translate(83,100)"/>
<path d="M0 0 C0.99 0 1.98 0 3 0 C6.875 6.75 6.875 6.75 8 9 C7.34 9.66 6.68 10.32 6 11 C4.515 8.03 4.515 8.03 3 5 C2.67 6.98 2.34 8.96 2 11 C1.67 11 1.34 11 1 11 C0.67 7.37 0.34 3.74 0 0 Z " fill="#484848" transform="translate(52,100)"/>
<path d="M0 0 C0.99 0 1.98 0 3 0 C6.875 6.75 6.875 6.75 8 9 C7.34 9.66 6.68 10.32 6 11 C4.515 8.03 4.515 8.03 3 5 C2.67 6.98 2.34 8.96 2 11 C1.67 11 1.34 11 1 11 C0.67 7.37 0.34 3.74 0 0 Z " fill="#434343" transform="translate(97,100)"/>
<path d="M0 0 C0.99 0.33 1.98 0.66 3 1 C3 4.63 3 8.26 3 12 C1.35 12 -0.3 12 -2 12 C-1.34 11.67 -0.68 11.34 0 11 C-0.08378906 10.28972656 -0.16757812 9.57945313 -0.25390625 8.84765625 C-0.35574219 7.92855469 -0.45757812 7.00945312 -0.5625 6.0625 C-0.66691406 5.14597656 -0.77132812 4.22945313 -0.87890625 3.28515625 C-0.91886719 2.53105469 -0.95882812 1.77695313 -1 1 C-0.67 0.67 -0.34 0.34 0 0 Z " fill="#757575" transform="translate(63,100)"/>
<path d="M0 0 C0.99 0.33 1.98 0.66 3 1 C3 4.63 3 8.26 3 12 C1.35 12 -0.3 12 -2 12 C-1.34 11.67 -0.68 11.34 0 11 C-0.08378906 10.28972656 -0.16757813 9.57945313 -0.25390625 8.84765625 C-0.35574219 7.92855469 -0.45757812 7.00945312 -0.5625 6.0625 C-0.66691406 5.14597656 -0.77132812 4.22945313 -0.87890625 3.28515625 C-0.91886719 2.53105469 -0.95882812 1.77695313 -1 1 C-0.67 0.67 -0.34 0.34 0 0 Z " fill="#767676" transform="translate(108,100)"/>
<path d="M0 0 C1.98 0 3.96 0 6 0 C5.67 1.65 5.34 3.3 5 5 C2 5 2 5 0 4 C0 2.68 0 1.36 0 0 Z " fill="#CACACA" transform="translate(38,100)"/>
<path d="M0 0 C2.31 0 4.62 0 7 0 C6.67 1.32 6.34 2.64 6 4 C4.35 4 2.7 4 1 4 C0.67 2.68 0.34 1.36 0 0 Z " fill="#E1E1E1" transform="translate(73,106)"/>
<path d="M0 0 C2.96052484 3.36423277 3.92289822 6.69159287 5 11 C4.34 11 3.68 11 3 11 C2.34 8.69 1.68 6.38 1 4 C0.34 4 -0.32 4 -1 4 C-0.67 2.68 -0.34 1.36 0 0 Z " fill="#2A2A2A" transform="translate(29,100)"/>
<path d="M0 0 C0.33 0.99 0.66 1.98 1 3 C1.825 3.309375 2.65 3.61875 3.5 3.9375 C4.325 4.288125 5.15 4.63875 6 5 C6.8125 7.125 6.8125 7.125 7 9 C6.01 9.495 6.01 9.495 5 10 C4.731875 9.38125 4.46375 8.7625 4.1875 8.125 C3.04443152 5.7004767 3.04443152 5.7004767 0 4 C0 2.68 0 1.36 0 0 Z " fill="#2E2E2E" transform="translate(37,101)"/>
<path d="M0 0 C0.66 0 1.32 0 2 0 C2 2.64 2 5.28 2 8 C1.01 7.34 0.02 6.68 -1 6 C-0.67 4.02 -0.34 2.04 0 0 Z " fill="#BFBFBF" transform="translate(106,103)"/>
<path d="M0 0 C0.66 0 1.32 0 2 0 C2 2.64 2 5.28 2 8 C1.01 7.34 0.02 6.68 -1 6 C-0.67 4.02 -0.34 2.04 0 0 Z " fill="#C1C1C1" transform="translate(61,103)"/>
</svg>
